<svg width="31" height="30" viewBox="0 0 31 30" fill="none" xmlns="http://www.w3.org/2000/svg">
<path fill-rule="evenodd" clip-rule="evenodd" d="M29.6471 0.74434C30.0732 1.17056 30.3126 1.74856 30.3126 2.35124C30.3126 2.95392 30.0732 3.53192 29.6471 3.95814L12.6114 20.9939C12.3862 21.219 12.119 21.3977 11.8248 21.5195C11.5306 21.6414 11.2153 21.7041 10.8969 21.7041C10.5785 21.7041 10.2632 21.6414 9.969 21.5195C9.67483 21.3977 9.40755 21.219 9.18242 20.9939L0.718347 12.5313C0.501268 12.3216 0.328118 12.0708 0.209 11.7936C0.0898826 11.5163 0.0271834 11.218 0.0245609 10.9162C0.0219385 10.6144 0.0794455 10.3152 0.193726 10.0358C0.308007 9.7565 0.476772 9.50274 0.690176 9.28933C0.903579 9.07593 1.15735 8.90716 1.43667 8.79288C1.71599 8.6786 2.01528 8.6211 2.31707 8.62372C2.61885 8.62634 2.9171 8.68904 3.19439 8.80816C3.47169 8.92728 3.72249 9.10043 3.93215 9.3175L10.8961 16.2815L26.4318 0.74434C26.6429 0.533133 26.8935 0.365586 27.1693 0.251274C27.4452 0.136962 27.7408 0.078125 28.0394 0.078125C28.338 0.078125 28.6337 0.136962 28.9096 0.251274C29.1854 0.365586 29.436 0.533133 29.6471 0.74434Z" fill="#58F93B"/>
</svg>
